<?xml version="1.0" standalone="no"?>
<!DOCTYPE svg PUBLIC "-//W3C//DTD SVG 20010904//EN"
 "http://www.w3.org/TR/2001/REC-SVG-20010904/DTD/svg10.dtd">
<svg version="1.0" xmlns="http://www.w3.org/2000/svg"
 width="260.000000pt" height="260.000000pt" viewBox="0 0 260.000000 260.000000"
 preserveAspectRatio="xMidYMid meet">
<metadata>
Created by potrace 1.11, written by Peter Selinger 2001-2013
</metadata>
<g transform="translate(0.000000,260.000000) scale(0.100000,-0.100000)"
fill="#000000" stroke="none">
<path d="M0 1300 l0 -1300 1300 0 1300 0 0 510 c0 281 -2 510 -5 510 -3 0 -18
-12 -33 -26 -27 -25 -29 -26 -134 -19 -163 9 -163 9 -297 -120 -131 -127 -185
-160 -294 -177 -66 -10 -84 -9 -168 11 -108 25 -191 68 -219 114 l-20 32 -92
0 c-51 1 -100 4 -109 8 -11 6 -23 -3 -43 -32 -62 -89 -223 -149 -366 -136
-119 10 -185 46 -310 170 -58 56 -119 110 -136 118 -24 12 -53 14 -145 10 -95
-5 -120 -3 -147 11 -82 43 8 109 165 122 102 7 208 -19 295 -73 75 -47 110
-59 100 -34 -8 22 -48 80 -78 114 -22 24 -31 27 -92 27 -108 0 -131 14 -109
66 13 31 49 44 117 44 92 0 149 -27 249 -118 47 -44 102 -89 121 -101 43 -26
101 -28 123 -3 14 16 13 22 -8 72 -13 30 -27 73 -30 95 -4 22 -17 51 -30 65
-13 14 -35 46 -49 73 -148 282 102 597 475 597 163 0 286 -48 389 -150 139
-139 160 -337 51 -492 -22 -32 -47 -84 -57 -117 -9 -34 -25 -71 -36 -83 -26
-30 -34 -68 -17 -79 21 -13 85 -11 122 5 18 7 73 50 122 96 117 107 171 134
267 128 58 -3 74 -8 88 -26 29 -35 15 -60 -37 -68 -24 -3 -61 -4 -81 0 -44 7
-69 -11 -119 -84 -22 -31 -56 -60 -112 -94 -102 -61 -152 -78 -219 -74 l-53 3
23 -19 c19 -15 33 -17 81 -12 59 6 105 25 195 82 29 19 59 34 67 34 8 0 46 20
85 45 97 62 199 89 304 81 85 -7 166 -26 166 -38 0 -4 6 -8 14 -8 8 0 17 -6
19 -12 3 -7 6 339 6 770 l1 782 -1300 0 -1300 0 0 -1300z"/>
<path d="M1049 1503 l-34 -37 37 27 c45 33 58 34 88 2 13 -14 26 -23 28 -20 9
9 -51 65 -68 65 -9 0 -32 -17 -51 -37z"/>
<path d="M1509 1503 l-34 -37 37 27 c46 34 55 34 92 0 l29 -28 -28 38 c-15 20
-35 37 -44 37 -9 0 -33 -17 -52 -37z"/>
<path d="M996 946 c-8 -19 -23 -39 -34 -45 -29 -16 -112 -14 -163 4 -39 13
-42 13 -24 0 26 -21 110 -45 153 -45 27 0 42 8 68 36 20 20 34 46 34 60 0 35
-17 30 -34 -10z"/>
</g>
</svg>
